<svg enable-background="new 0 0 130 23" viewBox="0 0 130 23" xmlns="http://www.w3.org/2000/svg"><g fill="#fff"><path d="m11 5.3c1 0 2.3-.7 3.1-1.6.7-.8 1.2-2 1.2-3.2 0-.2 0-.3 0-.5-1.1 0-2.5.8-3.3 1.7-.6.7-1.3 1.9-1.3 3.1v.4c.1.1.2.1.3.1z"/><path d="m17 12.1c0-2.9 2.3-4.2 2.5-4.3-1.5-2.2-3.9-2.3-4.5-2.3-1.7 0-3.1 1.1-4 1.1-1 0-2.2-1-3.7-1-2.8 0-5.7 2.4-5.7 6.8 0 2.8 1.1 5.7 2.4 7.6 1 1.6 2 2.9 3.4 2.9s2-1 3.8-1 2.2.9 3.7.9c1.6 0 2.6-1.4 3.5-2.8 1.1-1.6 1.6-3.2 1.6-3.3-.1 0-3-1.2-3-4.6z"/><path d="m39.1 17.6h-.2l-3.1-11.8h-2.9l-3.1 11.8h-.1l-2.7-11.8h-3.6l4.4 16.7h3.3l3.2-11h.2l3.1 11h3.3l4.4-16.7h-3.6z"/><path d="m62.1 17.6h-.1l-3.2-11.8h-2.9l-3.1 11.8h-.1l-2.6-11.8h-3.7l4.4 16.7h3.3l3.2-11h.2l3.1 11h3.3l4.4-16.7h-3.6z"/><path d="m76.3 5.8h-6.6v16.7h6.6c5 0 7.8-3 7.8-8.5 0-5.2-2.8-8.2-7.8-8.2zm-.6 13.7h-2.5v-10.7h2.5c3 0 4.8 1.9 4.8 5.3.1 3.5-1.7 5.4-4.8 5.4z"/><path d="m93.4 19.9c-2.6 0-4.3-2.2-4.3-5.7s1.6-5.7 4.3-5.7c2 0 3.5 1.3 3.8 3.2h3.4c-.3-3.6-3.3-6.3-7.3-6.3-4.9 0-7.8 3.3-7.8 8.8 0 5.4 3 8.8 7.8 8.8 4 0 7-2.5 7.3-6.1h-3.4c-.3 1.8-1.8 3-3.8 3z"/><path d="m107.3 19.5 3.5-3.3c2.8-2.6 3.6-4 3.6-5.9 0-2.8-2.3-4.9-5.8-4.9-3.7 0-6.2 2.2-6.2 5.5h3.2c0-1.6 1.1-2.8 2.8-2.8 1.6 0 2.6 1.1 2.6 2.5 0 1.2-.5 1.9-2.5 3.9l-5.9 5.7v2.3h12v-2.8h-7.3z"/><path d="m121.9 5.4c-4.1 0-6.6 3.2-6.6 8.7s2.5 8.8 6.6 8.8 6.6-3.3 6.6-8.8-2.5-8.7-6.6-8.7zm0 14.8c-1.9 0-3.1-2-3.1-6s1.2-6 3.1-6 3.1 2 3.1 6-1.2 6-3.1 6z"/></g></svg>